<svg width="1024" height="1024" viewBox="0 0 1024 1024" fill="none" xmlns="http://www.w3.org/2000/svg">
<g clip-path="url(#clip0_1_2)">
<rect width="1024" height="1024" fill="white"/>
<path d="M0 128L13.1556 149.3C26.24 171 52.6222 213 78.9333 208C105.031 203 131.556 149 157.867 138.7C183.822 128 209.778 160 236.089 154.7C262.542 149 288.711 107 315.022 117.3C341.333 128 367.644 192 393.956 229.3C420.124 267 446.578 277 472.889 266.7C498.844 256 524.8 224 551.111 224C577.636 224 603.733 256 630.044 234.7C656.427 213 682.667 139 708.978 112C735.147 85 761.6 107 787.911 128C813.938 149 840.533 171 866.133 165.3C892.729 160 918.756 128 945.067 133.3C971.52 139 997.689 181 1011.2 202.7L1024 224V0H1010.84C997.76 0 971.378 0 945.067 0C918.969 0 892.444 0 866.133 0C840.178 0 814.222 0 787.911 0C761.458 0 735.289 0 708.978 0C682.667 0 656.356 0 630.044 0C603.876 0 577.422 0 551.111 0C525.156 0 499.2 0 472.889 0C446.364 0 420.267 0 393.956 0C367.573 0 341.333 0 315.022 0C288.853 0 262.4 0 236.089 0C210.062 0 183.467 0 157.867 0C131.271 0 105.244 0 78.9333 0C52.48 0 26.3111 0 12.8 0H0V128Z" fill="#0099FF"/>
<path d="M0 864L13.1556 842.7C26.24 821 52.6222 779 78.9333 805.3C105.031 832 131.556 928 157.867 960C183.822 992 209.778 960 236.089 954.7C262.542 949 288.711 971 315.022 954.7C341.333 939 367.644 885 393.956 890.7C420.124 896 446.578 960 472.889 949.3C498.844 939 524.8 853 551.111 805.3C577.636 757 603.733 747 630.044 752C656.427 757 682.667 779 708.978 778.7C735.147 779 761.6 757 787.911 773.3C813.938 789 840.533 843 866.133 858.7C892.729 875 918.756 853 945.067 853.3C971.52 853 997.689 875 1011.2 885.3L1024 896V1024H1010.84C997.76 1024 971.378 1024 945.067 1024C918.969 1024 892.444 1024 866.133 1024C840.178 1024 814.222 1024 787.911 1024C761.458 1024 735.289 1024 708.978 1024C682.667 1024 656.356 1024 630.044 1024C603.876 1024 577.422 1024 551.111 1024C525.156 1024 499.2 1024 472.889 1024C446.364 1024 420.267 1024 393.956 1024C367.573 1024 341.333 1024 315.022 1024C288.853 1024 262.4 1024 236.089 1024C210.062 1024 183.467 1024 157.867 1024C131.271 1024 105.244 1024 78.9333 1024C52.48 1024 26.3111 1024 12.8 1024H0V864Z" fill="#0099FF"/>
<path d="M320.857 321H289V703H320.857V321Z" fill="#6E6E6E"/>
<path d="M384.571 321H320.857L320.857 352.833H384.571V321Z" fill="#6E6E6E"/>
<path d="M384.571 671.167H320.857L320.857 703L384.571 703V671.167Z" fill="#6E6E6E"/>
<path d="M735 321H703.143V703H735V321Z" fill="#6E6E6E"/>
<path d="M735 321H639.429V352.833H735L735 321Z" fill="#6E6E6E"/>
<path d="M703.143 671.167H639.429V703L703.143 703V671.167Z" fill="#6E6E6E"/>
<path d="M557.936 420H514.702L385 603H428.234L557.936 420Z" fill="#0099FF"/>
<path d="M639 420H595.766L466.064 603H509.298L639 420Z" fill="#0099FF"/>
</g>
<defs>
<clipPath id="clip0_1_2">
<rect width="1024" height="1024" fill="white"/>
</clipPath>
</defs>
</svg>
