<svg width="1226" height="183" viewBox="0 0 1226 183" fill="none" xmlns="http://www.w3.org/2000/svg">
<path d="M209.125 138V44.9091H274.58V65.2727H234.398V81.2727H270.58V101.636H234.398V138H209.125ZM281.33 65.2727V44.9091H362.239V65.2727H334.239V138H309.33V65.2727H281.33ZM454.284 79.8182H428.648C428.466 77.697 427.981 75.7727 427.193 74.0455C426.436 72.3182 425.375 70.8333 424.011 69.5909C422.678 68.3182 421.057 67.3485 419.148 66.6818C417.239 65.9848 415.072 65.6364 412.648 65.6364C408.405 65.6364 404.814 66.6667 401.875 68.7273C398.966 70.7879 396.754 73.7424 395.239 77.5909C393.754 81.4394 393.011 86.0606 393.011 91.4545C393.011 97.1515 393.769 101.924 395.284 105.773C396.83 109.591 399.057 112.47 401.966 114.409C404.875 116.318 408.375 117.273 412.466 117.273C414.799 117.273 416.89 116.985 418.739 116.409C420.587 115.803 422.193 114.939 423.557 113.818C424.92 112.697 426.027 111.348 426.875 109.773C427.754 108.167 428.345 106.364 428.648 104.364L454.284 104.545C453.981 108.485 452.875 112.5 450.966 116.591C449.057 120.652 446.345 124.409 442.83 127.864C439.345 131.288 435.027 134.045 429.875 136.136C424.723 138.227 418.739 139.273 411.92 139.273C403.375 139.273 395.708 137.439 388.92 133.773C382.163 130.106 376.814 124.712 372.875 117.591C368.966 110.47 367.011 101.758 367.011 91.4545C367.011 81.0909 369.011 72.3636 373.011 65.2727C377.011 58.1515 382.405 52.7727 389.193 49.1364C395.981 45.4697 403.557 43.6364 411.92 43.6364C417.799 43.6364 423.208 44.4394 428.148 46.0454C433.087 47.6515 437.42 50 441.148 53.0909C444.875 56.1515 447.875 59.9242 450.148 64.4091C452.42 68.8939 453.799 74.0303 454.284 79.8182ZM578.159 79.8182H552.523C552.341 77.697 551.856 75.7727 551.068 74.0455C550.311 72.3182 549.25 70.8333 547.886 69.5909C546.553 68.3182 544.932 67.3485 543.023 66.6818C541.114 65.9848 538.947 65.6364 536.523 65.6364C532.28 65.6364 528.689 66.6667 525.75 68.7273C522.841 70.7879 520.629 73.7424 519.114 77.5909C517.629 81.4394 516.886 86.0606 516.886 91.4545C516.886 97.1515 517.644 101.924 519.159 105.773C520.705 109.591 522.932 112.47 525.841 114.409C528.75 116.318 532.25 117.273 536.341 117.273C538.674 117.273 540.765 116.985 542.614 116.409C544.462 115.803 546.068 114.939 547.432 113.818C548.795 112.697 549.902 111.348 550.75 109.773C551.629 108.167 552.22 106.364 552.523 104.364L578.159 104.545C577.856 108.485 576.75 112.5 574.841 116.591C572.932 120.652 570.22 124.409 566.705 127.864C563.22 131.288 558.902 134.045 553.75 136.136C548.598 138.227 542.614 139.273 535.795 139.273C527.25 139.273 519.583 137.439 512.795 133.773C506.038 130.106 500.689 124.712 496.75 117.591C492.841 110.47 490.886 101.758 490.886 91.4545C490.886 81.0909 492.886 72.3636 496.886 65.2727C500.886 58.1515 506.28 52.7727 513.068 49.1364C519.856 45.4697 527.432 43.6364 535.795 43.6364C541.674 43.6364 547.083 44.4394 552.023 46.0454C556.962 47.6515 561.295 50 565.023 53.0909C568.75 56.1515 571.75 59.9242 574.023 64.4091C576.295 68.8939 577.674 74.0303 578.159 79.8182ZM623.625 139.273C616.049 139.273 609.564 137.773 604.17 134.773C598.777 131.742 594.64 127.53 591.761 122.136C588.883 116.712 587.443 110.424 587.443 103.273C587.443 96.1212 588.883 89.8485 591.761 84.4545C594.64 79.0303 598.777 74.8182 604.17 71.8182C609.564 68.7879 616.049 67.2727 623.625 67.2727C631.201 67.2727 637.686 68.7879 643.08 71.8182C648.473 74.8182 652.61 79.0303 655.489 84.4545C658.367 89.8485 659.807 96.1212 659.807 103.273C659.807 110.424 658.367 116.712 655.489 122.136C652.61 127.53 648.473 131.742 643.08 134.773C637.686 137.773 631.201 139.273 623.625 139.273ZM623.807 120.727C625.928 120.727 627.761 120.015 629.307 118.591C630.852 117.167 632.049 115.136 632.898 112.5C633.746 109.864 634.17 106.727 634.17 103.091C634.17 99.4242 633.746 96.2879 632.898 93.6818C632.049 91.0455 630.852 89.0152 629.307 87.5909C627.761 86.1667 625.928 85.4545 623.807 85.4545C621.564 85.4545 619.64 86.1667 618.034 87.5909C616.428 89.0152 615.201 91.0455 614.352 93.6818C613.504 96.2879 613.08 99.4242 613.08 103.091C613.08 106.727 613.504 109.864 614.352 112.5C615.201 115.136 616.428 117.167 618.034 118.591C619.64 120.015 621.564 120.727 623.807 120.727ZM669.989 138V68.1818H693.807V81.4545H694.534C695.989 77.0909 698.473 73.6364 701.989 71.0909C705.504 68.5455 709.686 67.2727 714.534 67.2727C719.443 67.2727 723.67 68.5758 727.216 71.1818C730.761 73.7576 732.898 77.1818 733.625 81.4545H734.352C735.534 77.1818 738.049 73.7576 741.898 71.1818C745.746 68.5758 750.261 67.2727 755.443 67.2727C762.14 67.2727 767.564 69.4242 771.716 73.7273C775.898 78.0303 777.989 83.7576 777.989 90.9091V138H752.898V97.2727C752.898 94.2121 752.125 91.8182 750.58 90.0909C749.034 88.3333 746.958 87.4545 744.352 87.4545C741.777 87.4545 739.731 88.3333 738.216 90.0909C736.731 91.8182 735.989 94.2121 735.989 97.2727V138H711.989V97.2727C711.989 94.2121 711.216 91.8182 709.67 90.0909C708.125 88.3333 706.049 87.4545 703.443 87.4545C701.716 87.4545 700.231 87.8485 698.989 88.6364C697.746 89.4242 696.777 90.5606 696.08 92.0455C695.413 93.5 695.08 95.2424 695.08 97.2727V138H669.989ZM790.364 164.182V68.1818H815.273V80.3636H815.818C816.727 78 818.061 75.8333 819.818 73.8636C821.576 71.8636 823.758 70.2727 826.364 69.0909C828.97 67.8788 832 67.2727 835.455 67.2727C840.061 67.2727 844.439 68.5 848.591 70.9545C852.773 73.4091 856.167 77.2727 858.773 82.5455C861.409 87.8182 862.727 94.6667 862.727 103.091C862.727 111.152 861.47 117.833 858.955 123.136C856.47 128.439 853.136 132.394 848.955 135C844.803 137.606 840.242 138.909 835.273 138.909C832 138.909 829.076 138.379 826.5 137.318C823.955 136.227 821.773 134.758 819.955 132.909C818.167 131.03 816.788 128.909 815.818 126.545H815.455V164.182H790.364ZM814.909 103.091C814.909 106.485 815.348 109.424 816.227 111.909C817.136 114.364 818.409 116.273 820.045 117.636C821.712 118.97 823.697 119.636 826 119.636C828.303 119.636 830.258 118.985 831.864 117.682C833.5 116.348 834.742 114.455 835.591 112C836.47 109.515 836.909 106.545 836.909 103.091C836.909 99.6364 836.47 96.6818 835.591 94.2273C834.742 91.7424 833.5 89.8485 831.864 88.5455C830.258 87.2121 828.303 86.5455 826 86.5455C823.697 86.5455 821.712 87.2121 820.045 88.5455C818.409 89.8485 817.136 91.7424 816.227 94.2273C815.348 96.6818 814.909 99.6364 814.909 103.091ZM892.693 139.091C888.239 139.091 884.299 138.364 880.875 136.909C877.481 135.424 874.814 133.182 872.875 130.182C870.936 127.182 869.966 123.364 869.966 118.727C869.966 114.909 870.617 111.652 871.92 108.955C873.223 106.227 875.042 104 877.375 102.273C879.708 100.545 882.42 99.2273 885.511 98.3182C888.633 97.4091 891.996 96.8182 895.602 96.5455C899.511 96.2424 902.648 95.8788 905.011 95.4545C907.405 95 909.133 94.3788 910.193 93.5909C911.254 92.7727 911.784 91.697 911.784 90.3636V90.1818C911.784 88.3636 911.087 86.9697 909.693 86C908.299 85.0303 906.511 84.5455 904.33 84.5455C901.936 84.5455 899.981 85.0758 898.466 86.1364C896.981 87.1667 896.087 88.7576 895.784 90.9091H872.693C872.996 86.6667 874.345 82.7576 876.739 79.1818C879.163 75.5758 882.693 72.697 887.33 70.5455C891.966 68.3636 897.754 67.2727 904.693 67.2727C909.693 67.2727 914.178 67.8636 918.148 69.0455C922.117 70.197 925.496 71.8182 928.284 73.9091C931.072 75.9697 933.193 78.3939 934.648 81.1818C936.133 83.9394 936.875 86.9394 936.875 90.1818V138H913.42V128.182H912.875C911.481 130.788 909.784 132.894 907.784 134.5C905.814 136.106 903.557 137.273 901.011 138C898.496 138.727 895.723 139.091 892.693 139.091ZM900.875 123.273C902.784 123.273 904.572 122.879 906.239 122.091C907.936 121.303 909.314 120.167 910.375 118.682C911.436 117.197 911.966 115.394 911.966 113.273V107.455C911.299 107.727 910.587 107.985 909.83 108.227C909.102 108.47 908.314 108.697 907.466 108.909C906.648 109.121 905.769 109.318 904.83 109.5C903.92 109.682 902.966 109.848 901.966 110C900.027 110.303 898.436 110.803 897.193 111.5C895.981 112.167 895.072 113 894.466 114C893.89 114.97 893.602 116.061 893.602 117.273C893.602 119.212 894.284 120.697 895.648 121.727C897.011 122.758 898.754 123.273 900.875 123.273ZM973.955 98.7273V138H948.864V68.1818H972.682V81.4545H973.409C974.924 77.0303 977.591 73.5606 981.409 71.0455C985.258 68.5303 989.742 67.2727 994.864 67.2727C999.803 67.2727 1004.09 68.4091 1007.73 70.6818C1011.39 72.9242 1014.23 76.0151 1016.23 79.9545C1018.26 83.8939 1019.26 88.3939 1019.23 93.4545V138H994.136V98.7273C994.167 95.2727 993.288 92.5606 991.5 90.5909C989.742 88.6212 987.288 87.6364 984.136 87.6364C982.076 87.6364 980.273 88.0909 978.727 89C977.212 89.8788 976.045 91.1515 975.227 92.8182C974.409 94.4545 973.985 96.4242 973.955 98.7273ZM1031.61 138V68.1818H1056.7V138H1031.61ZM1044.16 60.9091C1040.77 60.9091 1037.86 59.7879 1035.43 57.5455C1033.01 55.303 1031.8 52.6061 1031.8 49.4545C1031.8 46.303 1033.01 43.6061 1035.43 41.3636C1037.86 39.1212 1040.77 38 1044.16 38C1047.58 38 1050.49 39.1212 1052.89 41.3636C1055.31 43.6061 1056.52 46.303 1056.52 49.4545C1056.52 52.6061 1055.31 55.303 1052.89 57.5455C1050.49 59.7879 1047.58 60.9091 1044.16 60.9091ZM1103.12 139.273C1095.55 139.273 1089.06 137.773 1083.67 134.773C1078.28 131.742 1074.14 127.53 1071.26 122.136C1068.38 116.712 1066.94 110.424 1066.94 103.273C1066.94 96.1212 1068.38 89.8485 1071.26 84.4545C1074.14 79.0303 1078.28 74.8182 1083.67 71.8182C1089.06 68.7879 1095.55 67.2727 1103.12 67.2727C1110.7 67.2727 1117.19 68.7879 1122.58 71.8182C1127.97 74.8182 1132.11 79.0303 1134.99 84.4545C1137.87 89.8485 1139.31 96.1212 1139.31 103.273C1139.31 110.424 1137.87 116.712 1134.99 122.136C1132.11 127.53 1127.97 131.742 1122.58 134.773C1117.19 137.773 1110.7 139.273 1103.12 139.273ZM1103.31 120.727C1105.43 120.727 1107.26 120.015 1108.81 118.591C1110.35 117.167 1111.55 115.136 1112.4 112.5C1113.25 109.864 1113.67 106.727 1113.67 103.091C1113.67 99.4242 1113.25 96.2879 1112.4 93.6818C1111.55 91.0455 1110.35 89.0152 1108.81 87.5909C1107.26 86.1667 1105.43 85.4545 1103.31 85.4545C1101.06 85.4545 1099.14 86.1667 1097.53 87.5909C1095.93 89.0152 1094.7 91.0455 1093.85 93.6818C1093 96.2879 1092.58 99.4242 1092.58 103.091C1092.58 106.727 1093 109.864 1093.85 112.5C1094.7 115.136 1095.93 117.167 1097.53 118.591C1099.14 120.015 1101.06 120.727 1103.31 120.727ZM1174.58 98.7273V138H1149.49V68.1818H1173.31V81.4545H1174.03C1175.55 77.0303 1178.22 73.5606 1182.03 71.0455C1185.88 68.5303 1190.37 67.2727 1195.49 67.2727C1200.43 67.2727 1204.72 68.4091 1208.35 70.6818C1212.02 72.9242 1214.85 76.0151 1216.85 79.9545C1218.88 83.8939 1219.88 88.3939 1219.85 93.4545V138H1194.76V98.7273C1194.79 95.2727 1193.91 92.5606 1192.12 90.5909C1190.37 88.6212 1187.91 87.6364 1184.76 87.6364C1182.7 87.6364 1180.9 88.0909 1179.35 89C1177.84 89.8788 1176.67 91.1515 1175.85 92.8182C1175.03 94.4545 1174.61 96.4242 1174.58 98.7273Z" fill="#0099FF"/>
<path d="M11.5714 22H0V161H11.5714V22Z" fill="#6E6E6E"/>
<path d="M34.7143 22H11.5714L11.5714 33.5833H34.7143V22Z" fill="#6E6E6E"/>
<path d="M34.7143 149.417H11.5714L11.5714 161L34.7143 161V149.417Z" fill="#6E6E6E"/>
<path d="M162 22H150.429V161H162V22Z" fill="#6E6E6E"/>
<path d="M162 22H127.286V33.5833H162L162 22Z" fill="#6E6E6E"/>
<path d="M150.429 149.417H127.286V161L150.429 161V149.417Z" fill="#6E6E6E"/>
<path d="M97.6853 58.0236H81.9815L34.87 124.613H50.5738L97.6853 58.0236Z" fill="#0099FF"/>
<path d="M127.13 58.0236H111.426L64.3147 124.613H80.0185L127.13 58.0236Z" fill="#0099FF"/>
</svg>
